<svg width="30" height="30" xmlns="http://www.w3.org/2000/svg">

 <g>
  <title>background</title>
  <rect fill="none" id="canvas_background" height="402" width="582" y="-1" x="-1"/>
 </g>
 <g>
  <title>Layer 1</title>
  <path id="svg_1" fill="#e29c16" d="m28.7,10.2c-2.5,-3 -7.6,-4.8 -13.7,-4.8c0,0 0,0 0,0l0,0c0,0 0,0 0,0c-6,0 -11.2,1.8 -13.7,4.8c-1,1.2 -1.4,2.6 -1.1,4c0.2,1.2 1,2.3 2,2.8c0.6,0.3 1.3,0.4 1.9,0.4c0.3,0 0.7,0 1,-0.1c-0.2,0.6 -0.3,1.2 -0.4,1.9c-0.2,1.8 0.1,3.1 1,4.1c1,1.2 2.6,1.3 3.2,1.3c0.2,0 0.3,0 0.3,0l11.7,0c1.3,0 2.5,-0.5 3.2,-1.4c1,-1.2 1.2,-2.9 1.1,-4c-0.1,-0.6 -0.2,-1.3 -0.4,-1.9c0.3,0.1 0.7,0.1 1.1,0.1c0.6,0 1.3,-0.1 1.9,-0.4c1,-0.5 1.8,-1.6 2,-2.8c0.2,-1.4 -0.1,-2.9 -1.1,-4zm-5.7,12c-0.5,0.6 -1.2,0.9 -2.1,0.9l-11.8,0c-0.1,0 -1.5,0.1 -2.3,-0.8c-0.5,-0.6 -0.7,-1.6 -0.6,-2.9c0.5,-4 3.2,-6.4 3.7,-6.8c1.4,-1.1 3.3,-1.8 5.2,-1.8c1.9,0 3.6,0.6 4.9,1.8c1.9,1.6 3.3,4.3 3.7,6.8c0.1,0.8 0,2 -0.7,2.8zm5.3,-8.3c-0.2,0.8 -0.6,1.5 -1.3,1.8c-1.1,0.6 -2.6,0.1 -3,-0.1c-0.7,-1.6 -1.8,-3 -3.1,-4.1c-1.6,-1.4 -3.7,-2.1 -5.9,-2.1c-2.2,0 -4.4,0.8 -6.1,2.1c-0.4,0.3 -2.1,1.8 -3.2,4.2c-0.5,0.2 -1.8,0.6 -2.8,0c-0.6,-0.3 -1.1,-1 -1.3,-1.8c-0.2,-0.9 0.1,-1.9 0.8,-2.7c2.3,-2.7 7,-4.3 12.6,-4.3c5.6,0 10.3,1.6 12.5,4.3c0.7,0.8 1,1.7 0.8,2.7zm-13.3,-1.5c-2.2,0 -4.1,1.6 -4.1,3.5s1.8,3.5 4.1,3.5c2.2,0 4.1,-1.6 4.1,-3.5s-1.9,-3.5 -4.1,-3.5zm0,5.5c-1.4,0 -2.6,-0.9 -2.6,-2s1.1,-2 2.6,-2c1.4,0 2.6,0.9 2.6,2s-1.2,2 -2.6,2z"/>
 </g>
</svg>